# xmcd
# 
# Track frame offsets:
#     150
#     16359
#     31220
#     53432
#     73720
#     86900
#     112860
#     129690
#     151553
#     179425
# 
# Disc length: 2681
# 
# Revision: 0
# Processed by: cddbd v1.5.2PL0 Copyright (c) Steve Scherf et al.
# Submitted via: BonkEnc v1.0
# 
DISCID=750a770a
DTITLE=Paul deLay - Ocean of Tears
DYEAR=1996
DGENRE=Blues
TTITLE0=Bottom Line
TTITLE1=Don't Shame Me
TTITLE2=Ocean of Tears
TTITLE3=Maybe Our Luck Will Change
TTITLE4=Hopefully
TTITLE5=If She Is
TTITLE6=Slip, Stumble, Fall
TTITLE7=What Went Wrong
TTITLE8=Stop Your Groanin'
TTITLE9=I Win
EXTD=
EXTT0=
EXTT1=
EXTT2=
EXTT3=
EXTT4=
EXTT5=
EXTT6=
EXTT7=
EXTT8=
EXTT9=
PLAYORDER=
